<svg width="667" height="173" viewBox="0 0 667 173" fill="none" xmlns="http://www.w3.org/2000/svg">
<rect width="667" height="173" fill=""/>
<g id="stratis-logo-svg" clip-path="url(#clip0_0_1)">
<g id="stratis-logo-group">
<path id="stratisLogoTextA" d="M369.049 74.2698C369.944 71.9674 371.351 70.8163 373.27 70.8163H374.037C374.805 70.8163 375.572 71.0721 376.34 71.5837C377.107 72.0953 377.747 73.0546 378.258 74.4616L398.404 131.828L405.886 152.932L412.026 170.2H434.473L397.061 65.0605C395.27 59.8163 392.264 55.9151 388.043 53.357C383.822 50.7989 379.026 49.5198 373.654 49.5198C368.154 49.6477 363.357 50.9268 359.264 53.357C355.171 55.7872 352.165 59.6884 350.247 65.0605L312.834 170.2H335.282L341.229 152.932L348.52 131.828L369.049 74.2698Z" fill="url(#paint0_linear_0_1)"/>
<g id="stratisLogoHalo">
<mask id="path-2-inside-1_0_1" fill="white">
<path d="M408.131 148.72C381.46 137.965 360.325 124.043 347.218 108.598C334.112 93.1523 329.581 76.8273 334.161 61.5488C338.741 46.2703 352.24 32.6758 373.066 22.3689C393.891 12.0621 421.175 5.47299 451.698 3.37897C482.221 1.28495 514.709 3.77338 545.331 10.5507C575.952 17.328 603.429 28.1114 624.519 41.6288C645.609 55.1462 659.434 70.8336 664.361 86.8402C669.288 102.847 665.113 118.505 652.327 131.967L635.174 126.876C646.526 114.923 650.233 101.021 645.858 86.8102C641.484 72.5988 629.21 58.671 610.485 46.6698C591.76 34.6685 567.366 25.0946 540.179 19.0774C512.992 13.0603 484.147 10.851 457.048 12.7101C429.949 14.5693 405.725 20.4193 387.235 29.5701C368.745 38.7209 356.76 50.7907 352.694 64.3555C348.628 77.9203 352.651 92.4142 364.287 106.127C375.923 119.84 394.688 132.201 418.368 141.75L408.131 148.72Z"/>
</mask>
<path d="M408.131 148.72C381.46 137.965 360.325 124.043 347.218 108.598C334.112 93.1523 329.581 76.8273 334.161 61.5488C338.741 46.2703 352.24 32.6758 373.066 22.3689C393.891 12.0621 421.175 5.47299 451.698 3.37897C482.221 1.28495 514.709 3.77338 545.331 10.5507C575.952 17.328 603.429 28.1114 624.519 41.6288C645.609 55.1462 659.434 70.8336 664.361 86.8402C669.288 102.847 665.113 118.505 652.327 131.967L635.174 126.876C646.526 114.923 650.233 101.021 645.858 86.8102C641.484 72.5988 629.21 58.671 610.485 46.6698C591.76 34.6685 567.366 25.0946 540.179 19.0774C512.992 13.0603 484.147 10.851 457.048 12.7101C429.949 14.5693 405.725 20.4193 387.235 29.5701C368.745 38.7209 356.76 50.7907 352.694 64.3555C348.628 77.9203 352.651 92.4142 364.287 106.127C375.923 119.84 394.688 132.201 418.368 141.75L408.131 148.72Z" stroke="url(#paint1_linear_0_1)" stroke-width="40" mask="url(#path-2-inside-1_0_1)"/>
</g>
<g id="stratisLogoText">
<path d="M106.099 134.898C106.099 146.537 102.709 155.363 95.9301 161.374C89.279 167.258 79.9418 170.2 67.9185 170.2H6.13953V149.095H71.9476C75.6569 149.095 78.7267 147.688 81.1569 144.874C83.715 142.06 84.9941 138.607 84.9941 134.514C84.9941 130.677 83.715 127.351 81.1569 124.537C78.7267 121.595 75.6569 120.124 71.9476 120.124H37.9883C30.9535 120.124 25.0058 119.101 20.1453 117.055C15.4128 114.88 11.5116 112.13 8.44185 108.805C5.49999 105.479 3.32558 101.77 1.9186 97.6767C0.639534 93.4558 0 89.2988 0 85.2058C0 80.3453 0.703488 75.8046 2.11046 71.5837C3.51744 67.2349 5.75581 63.4616 8.82557 60.264C11.8953 56.9384 15.7965 54.3802 20.5291 52.5896C25.3895 50.671 31.2093 49.7117 37.9883 49.7117H98.0406V70.8163H34.7267C31.0174 70.8163 27.8197 72.2233 25.1337 75.0372C22.4477 77.8512 21.1046 81.1128 21.1046 84.8221C21.1046 88.7872 22.3837 92.1767 24.9418 94.9907C27.6279 97.6767 30.9535 99.0197 34.9186 99.0197H68.3023C79.9418 99.0197 89.1511 102.026 95.9301 108.037C102.709 113.921 106.099 122.619 106.099 134.13V134.898Z" fill="url(#paint2_linear_0_1)"/>
<path d="M162.654 170.2H141.549V70.8163H111.811V49.7117H190.666V70.8163H162.654V170.2Z" fill="url(#paint3_linear_0_1)"/>
<path d="M225.189 99.7872H267.206C271.171 99.7872 274.433 98.3802 276.991 95.5663C279.677 92.6244 281.02 89.1709 281.02 85.2058C281.02 83.2872 280.636 81.4965 279.869 79.8337C279.229 78.043 278.27 76.5081 276.991 75.2291C275.712 73.8221 274.241 72.7349 272.578 71.9674C271.043 71.2 269.316 70.8163 267.398 70.8163H225.189V99.7872ZM264.136 49.7117C270.787 49.7117 276.479 50.671 281.212 52.5896C286.072 54.3802 290.037 56.9384 293.107 60.264C296.177 63.4616 298.415 67.2349 299.822 71.5837C301.357 75.8046 302.125 80.3453 302.125 85.2058C302.125 89.4267 301.421 93.6477 300.014 97.8686C298.735 101.962 296.561 105.671 293.491 108.996C290.421 112.322 286.456 115.008 281.595 117.055C276.863 119.101 271.043 120.124 264.136 120.124H254.351L303.084 147.369V172.694L225.189 125.305V170.2H204.084V49.7117H264.136Z" fill="url(#paint4_linear_0_1)"/>
<path d="M397.061 65.0605L434.474 170.2H412.026L405.785 153.416C378.683 76.8988 376.785 73.4156 397.061 65.0605Z" fill="url(#paint5_linear_0_1)"/>
<path d="M472.366 170.2H451.261V70.8163H421.523V49.7117H500.378V70.8163H472.366V170.2Z" fill="url(#paint6_linear_0_1)"/>
<path d="M513.796 49.7117H534.9V170.2H513.796V49.7117Z" fill="url(#paint7_linear_0_1)"/>
<path d="M585.013 70.8163C581.304 70.8163 578.107 72.2233 575.42 75.0372C572.734 77.8512 571.391 81.1128 571.391 84.8221C571.391 88.7872 572.67 92.1767 575.229 94.9907C577.915 97.6767 581.24 99.0197 585.205 99.0197H618.589C630.229 99.0197 639.438 102.026 646.217 108.037C652.996 113.921 656.385 122.619 656.385 134.13C656.385 146.153 652.996 155.171 646.217 161.182C639.566 167.194 630.229 170.2 618.205 170.2H556.426V149.095H622.234C625.944 149.095 629.013 147.688 631.444 144.874C634.002 142.06 635.281 138.607 635.281 134.514C635.281 130.677 634.002 127.351 631.444 124.537C629.013 121.595 625.944 120.124 622.234 120.124H588.275C581.24 120.124 575.293 119.101 570.432 117.055C565.7 114.88 561.798 112.13 558.729 108.805C555.787 105.479 553.612 101.77 552.205 97.6767C550.926 93.4558 550.287 89.2988 550.287 85.2058C550.287 80.3453 550.99 75.8046 552.397 71.5837C553.804 67.2349 556.043 63.4616 559.112 60.264C562.182 56.9384 566.083 54.3802 570.816 52.5896C575.676 50.671 581.496 49.7117 588.275 49.7117H648.327V70.8163H585.013Z" fill="url(#paint8_linear_0_1)"/>
</g>
</g>
</g>
<defs>
<linearGradient id="paint0_linear_0_1" x1="311.285" y1="169.916" x2="351.785" y2="59.4156" gradientUnits="userSpaceOnUse">
<stop stop-color="#1C1917"/>
<stop offset="1" stop-color="#292524"/>
</linearGradient>
<linearGradient id="paint1_linear_0_1" x1="530.942" y1="54.117" x2="342.388" y2="87.7142" gradientUnits="userSpaceOnUse">
<stop stop-color="#0284C7"/>
<stop offset="1" stop-color="#0891B2"/>
</linearGradient>
<linearGradient id="paint2_linear_0_1" x1="351.285" y1="54.9156" x2="312.285" y2="169.916" gradientUnits="userSpaceOnUse">
<stop stop-color="#1C1917"/>
<stop offset="1" stop-color="#292524"/>
</linearGradient>
<linearGradient id="paint3_linear_0_1" x1="351.285" y1="54.9156" x2="312.285" y2="169.916" gradientUnits="userSpaceOnUse">
<stop stop-color="#1C1917"/>
<stop offset="1" stop-color="#292524"/>
</linearGradient>
<linearGradient id="paint4_linear_0_1" x1="351.285" y1="54.9156" x2="312.285" y2="169.916" gradientUnits="userSpaceOnUse">
<stop stop-color="#1C1917"/>
<stop offset="1" stop-color="#292524"/>
</linearGradient>
<linearGradient id="paint5_linear_0_1" x1="351.285" y1="54.9156" x2="312.285" y2="169.916" gradientUnits="userSpaceOnUse">
<stop stop-color="#1C1917"/>
<stop offset="1" stop-color="#292524"/>
</linearGradient>
<linearGradient id="paint6_linear_0_1" x1="351.285" y1="54.9156" x2="312.285" y2="169.916" gradientUnits="userSpaceOnUse">
<stop stop-color="#1C1917"/>
<stop offset="1" stop-color="#292524"/>
</linearGradient>
<linearGradient id="paint7_linear_0_1" x1="351.285" y1="54.9156" x2="312.285" y2="169.916" gradientUnits="userSpaceOnUse">
<stop stop-color="#1C1917"/>
<stop offset="1" stop-color="#292524"/>
</linearGradient>
<linearGradient id="paint8_linear_0_1" x1="351.285" y1="54.9156" x2="312.285" y2="169.916" gradientUnits="userSpaceOnUse">
<stop stop-color="#1C1917"/>
<stop offset="1" stop-color="#292524"/>
</linearGradient>
<clipPath id="clip0_0_1">
<rect width="667" height="173" fill="white"/>
</clipPath>
</defs>
</svg>
